<svg width="43" height="44" viewBox="0 0 43 44" fill="none" xmlns="http://www.w3.org/2000/svg">
<rect width="43" height="44" rx="21.5" fill="#BA2D0E"/>
<path d="M29.5 31V29C29.5 27.9391 29.0786 26.9217 28.3284 26.1716C27.5783 25.4214 26.5609 25 25.5 25H17.5C16.4391 25 15.4217 25.4214 14.6716 26.1716C13.9214 26.9217 13.5 27.9391 13.5 29V31" stroke="white" stroke-width="2" stroke-linecap="round" stroke-linejoin="round"/>
<path d="M21.5 21C23.7091 21 25.5 19.2091 25.5 17C25.5 14.7909 23.7091 13 21.5 13C19.2909 13 17.5 14.7909 17.5 17C17.5 19.2091 19.2909 21 21.5 21Z" stroke="white" stroke-width="2" stroke-linecap="round" stroke-linejoin="round"/>
</svg>
